<svg width="21" height="18" viewBox="0 0 21 18" fill="none" xmlns="http://www.w3.org/2000/svg">
<path d="M19.503 9.50476C19.3455 9.50476 19.2059 9.55772 19.1054 9.65826C19.0048 9.75881 18.9519 9.89844 18.9519 10.0559V15.8097C18.9519 15.9178 18.9163 15.9994 18.8619 16.0538C18.8076 16.1082 18.7259 16.1437 18.6178 16.1437H2.6842C2.57608 16.1437 2.49442 16.1082 2.44006 16.0538C2.3857 15.9994 2.35014 15.9178 2.35014 15.8097V10.0559C2.35014 9.89842 2.29718 9.75879 2.19663 9.65824C2.09609 9.5577 1.95646 9.50476 1.79903 9.50476C1.6416 9.50476 1.50197 9.55772 1.40143 9.65826C1.30088 9.7588 1.24792 9.89843 1.24792 10.0559V15.8097C1.24792 16.622 1.87188 17.246 2.68424 17.246H18.6178C19.4302 17.246 20.0541 16.622 20.0541 15.8097V10.0559C20.0541 9.89842 20.0012 9.75878 19.9006 9.65824C19.8001 9.5577 19.6604 9.50476 19.503 9.50476Z" fill="black" stroke="black" stroke-width="0.217052"/>
<path d="M1.90765 8.9667L1.90844 8.96688L8.77234 10.497V11.8263C8.77234 11.9838 8.8253 12.1234 8.92585 12.224C9.0264 12.3245 9.16603 12.3775 9.32345 12.3775H11.979C12.1365 12.3775 12.2761 12.3245 12.3767 12.2239C12.4772 12.1234 12.5302 11.9838 12.5302 11.8263V10.497L19.3941 8.96688L19.3948 8.9667C20.0185 8.82279 20.497 8.24862 20.497 7.57739V4.74475C20.497 3.93242 19.873 3.30847 19.0606 3.30847H2.24186C1.42949 3.30847 0.805537 3.93242 0.805537 4.74479V7.57743C0.805537 8.24862 1.28404 8.82279 1.90765 8.9667ZM19.1279 7.91356L19.1279 7.91353L19.1255 7.91407L12.5302 9.38935V9.17075C12.5302 9.01331 12.4772 8.87367 12.3766 8.77313C12.2761 8.67259 12.1365 8.61964 11.979 8.61964H9.32345C9.166 8.61964 9.02637 8.6726 8.92583 8.77315C8.82529 8.8737 8.77234 9.01333 8.77234 9.17075V9.38935L2.17704 7.91411L2.17704 7.91408L2.17464 7.9136C2.00781 7.88022 1.9078 7.75091 1.9078 7.57743V4.74479C1.9078 4.63667 1.94337 4.55501 1.99773 4.50065C2.05209 4.44629 2.13375 4.41073 2.24186 4.41073H19.0606C19.1688 4.41073 19.2504 4.44629 19.3048 4.50066C19.3591 4.55502 19.3947 4.63668 19.3947 4.74479V7.57739C19.3947 7.75089 19.2947 7.88022 19.1279 7.91356ZM11.4279 11.2752H9.8746V9.72191H11.4279V11.2752Z" fill="black" stroke="black" stroke-width="0.217052"/>
<path d="M12.8642 0.209834H8.43815C7.62578 0.209834 7.00183 0.833791 7.00183 1.64615V2.08874C7.00183 2.24619 7.05479 2.38582 7.15533 2.48636C7.25588 2.5869 7.39551 2.63985 7.55294 2.63985C7.71037 2.63985 7.85 2.58689 7.95054 2.48634C8.05109 2.3858 8.10405 2.24617 8.10405 2.08874V1.64615C8.10405 1.53804 8.13962 1.45637 8.19398 1.40202C8.24834 1.34765 8.33001 1.31209 8.43811 1.31209H12.8641C12.9722 1.31209 13.0539 1.34766 13.1083 1.40202C13.1626 1.45639 13.1982 1.53805 13.1982 1.64615V2.08874C13.1982 2.24619 13.2511 2.38582 13.3517 2.48636C13.4522 2.5869 13.5919 2.63985 13.7493 2.63985C13.9067 2.63985 14.0464 2.58689 14.1469 2.48634C14.2474 2.38579 14.3004 2.24616 14.3004 2.08874V1.64616C14.3004 1.64616 14.3004 1.64616 14.3004 1.64615C14.3005 0.833786 13.6765 0.209834 12.8642 0.209834Z" fill="black" stroke="black" stroke-width="0.217052"/>
</svg>
