<svg width="43" height="43" viewBox="0 0 43 43" fill="none" xmlns="http://www.w3.org/2000/svg">
<rect x="0.293945" y="0.0249023" width="42.3918" height="42.3918" fill="#7EFFF7"/>
<path d="M30.7645 27.0016C30.1304 26.4698 26.4118 24.115 25.7937 24.2231C25.5035 24.2746 25.2815 24.522 24.6874 25.2308C24.4126 25.5796 24.1108 25.9064 23.7849 26.2079C23.1877 26.0637 22.6096 25.8494 22.0627 25.5695C19.9177 24.5252 18.1848 22.7919 17.1412 20.6466C16.8613 20.0997 16.647 19.5216 16.5028 18.9244C16.8044 18.5984 17.1311 18.2967 17.48 18.0219C18.188 17.4278 18.4361 17.2072 18.4876 16.9156C18.5957 16.296 16.2387 12.5788 15.7091 11.9448C15.4871 11.6821 15.2854 11.5059 15.0272 11.5059C14.2785 11.5059 10.8921 15.6932 10.8921 16.2358C10.8921 16.2801 10.9646 20.6393 16.4701 26.2406C22.0714 31.7461 26.4306 31.8186 26.4749 31.8186C27.0175 31.8186 31.2048 28.4322 31.2048 27.6835C31.2048 27.4253 31.0286 27.2236 30.7645 27.0016Z" fill="black"/>
</svg>
