<svg width="219" height="228" viewBox="0 0 219 228" fill="none" xmlns="http://www.w3.org/2000/svg">
<path d="M204.642 107.715L206.991 114.943H214.591L208.442 119.41L210.791 126.638L204.642 122.171L198.494 126.638L200.842 119.41L194.694 114.943H202.294L204.642 107.715Z" fill="black"/>
<path d="M13.7449 110.004L16.0933 117.232H23.6931L17.5448 121.699L19.8932 128.927L13.7449 124.46L7.59652 128.927L9.94498 121.699L3.79663 117.232H11.3964L13.7449 110.004Z" fill="black"/>
<path d="M29.5754 163.353C33.8823 159.872 39.0742 160.521 42.9091 165.3C46.3901 169.606 46.6261 174.031 43.2631 176.686L43.0861 176.804L40.3132 173.382L40.4902 173.264C42.0831 171.966 42.0241 170.314 39.8412 167.6C37.3042 164.474 35.2983 164.179 32.2303 166.656C29.1624 169.134 28.9854 171.14 31.4633 174.208C34.0593 177.394 35.2983 177.984 37.1272 176.627L33.3513 171.966L35.6523 170.137L41.9651 177.925L34.6493 183.825L32.3483 180.934L35.2983 178.515L35.1803 178.338C32.9973 179.341 30.4603 178.987 28.0414 175.978C24.5604 171.73 25.2684 166.833 29.5754 163.353Z" fill="black"/>
<path d="M43.617 182.115L49.9299 173.914L53.0568 176.333L46.9209 184.298C45.092 186.717 45.328 188.251 48.1599 190.434C51.0509 192.676 52.5849 192.499 54.4138 190.08L60.5497 182.115L63.6767 184.534L57.4228 192.794C54.4728 196.57 50.4019 197.101 45.8 193.561C41.1981 189.962 40.6671 185.891 43.617 182.115Z" fill="black"/>
<path d="M57.2456 201.525L71.5824 188.487L76.7743 190.788L76.6563 210.198L72.4673 208.31L72.5263 204.062L64.3845 200.404L61.2575 203.295L57.2456 201.525ZM67.3344 197.808L72.6443 200.168L72.7033 195.92L72.8213 192.97L72.5263 192.852L70.4024 194.976L67.3344 197.808Z" fill="black"/>
<path d="M81.7896 211.496L85.0935 194.032L94.7693 195.861C99.0763 196.687 101.141 199.047 100.551 202.41C100.02 205.242 98.0733 206.658 94.7103 206.304L94.6513 206.54C96.1263 207.248 96.5983 208.192 97.0113 209.549L98.6633 214.741L94.1203 213.856L92.5864 208.841C92.1144 207.366 91.5834 206.776 89.5184 206.422L86.9225 205.95L85.7425 212.263L81.7896 211.496ZM87.4534 203L93.1764 204.062C95.0053 204.416 95.9493 204.062 96.3033 202.233C96.6573 200.522 95.8903 199.755 94.0613 199.401L88.3384 198.339L87.4534 203Z" fill="black"/>
<path d="M102.911 215.213L109.932 197.1L115.596 196.864L124.151 214.328L119.608 214.505L117.779 210.67L108.87 211.024L107.336 215.036L102.911 215.213ZM110.286 207.366L116.068 207.13L114.239 203.354L113.059 200.64H112.764L111.82 203.472L110.286 207.366Z" fill="black"/>
<path d="M129.401 213.207L124.504 196.098L128.575 194.918L137.012 201.23L140.375 204.18L140.67 204.121L139.49 200.699L137.13 192.44L140.965 191.319L145.862 208.428L141.791 209.608L133.177 203.236L130.109 200.64L129.873 200.699L130.935 203.767L133.295 212.027L129.401 213.207Z" fill="black"/>
<path d="M156.836 203.178L150.051 190.729L144.269 193.915L142.558 190.788L157.662 182.529L159.373 185.656L153.591 188.841L160.376 201.29L156.836 203.178Z" fill="black"/>
<path d="M170.524 194.918L159.019 181.407L170.465 171.613L172.766 174.327L164.329 181.525L166.571 184.18L174.713 177.277L177.014 179.991L168.931 186.894L171.232 189.608L179.669 182.41L181.97 185.124L170.524 194.918Z" fill="black"/>
<path d="M185.923 181.053L171.94 170.079L181.203 158.22L184.035 160.403L177.191 169.135L179.905 171.259L186.513 162.881L189.286 165.064L182.678 173.442L185.51 175.625L192.354 166.893L195.186 169.076L185.923 181.053Z" fill="black"/>
<path d="M25.5045 93.3801L25.3866 93.3211L26.2715 90.1942L26.6255 90.3122C27.9235 90.6662 28.6315 90.1942 29.4575 87.3032C30.1655 84.7663 29.9295 84.1173 28.9855 83.8223C28.1005 83.5863 27.6875 83.9993 27.0385 85.3563L25.3866 89.1322C24.2656 91.5512 22.6136 92.6721 20.3126 92.0232C18.1887 91.4332 16.4777 89.0732 17.7757 84.3533C19.0147 80.0464 21.5516 78.5714 24.5016 79.3974L24.6196 79.4564L23.7346 82.6423L23.4396 82.5833C22.0826 82.2293 21.3156 82.7603 20.5486 85.5333C19.8996 87.7752 20.1356 88.6012 21.0796 88.8962C21.9056 89.1322 22.3186 88.7192 22.8496 87.6572L24.5606 83.8813C25.9765 80.8723 27.8055 80.1644 29.7525 80.6954C32.0534 81.3443 33.5874 83.7043 32.3484 88.1882C31.1095 92.3772 28.7495 94.3241 25.5045 93.3801Z" fill="black"/>
<path d="M35.6524 77.0372L26.3306 64.1164L28.6905 60.1045L44.5612 61.9925L42.6733 65.2374L39.1923 64.7654L35.4754 71.0783L37.5404 73.9103L35.6524 77.0372ZM33.5284 68.4233L35.9474 64.2934L32.5255 63.8804L30.1065 63.5264L29.9885 63.7624L31.4635 65.7094L33.5284 68.4233Z" fill="black"/>
<path d="M48.2193 57.7452L37.8354 47.4203L40.1364 45.1194L48.3963 53.3202L54.5322 47.1254L56.5971 49.1903L48.2193 57.7452Z" fill="black"/>
<path d="M61.4939 45.4145L53.7061 33.0247L64.1489 26.4758L65.7418 28.9538L58.013 33.7917L59.547 36.2107L66.9808 31.5497L68.5148 34.0277L61.0809 38.6886L62.6739 41.1666L70.4028 36.3287L71.9957 38.8066L61.4939 45.4145Z" fill="black"/>
<path d="M75.831 31.5496L75.772 31.4316L78.8989 30.3696L79.0169 30.7236C79.4299 32.0216 80.2559 32.3166 83.0878 31.3726C85.5658 30.5466 86.0378 29.9566 85.6838 29.0716C85.3888 28.2456 84.7988 28.0686 83.3238 28.3046L79.2529 29.0716C76.6569 29.4846 74.769 28.7766 74.002 26.4757C73.294 24.4107 74.238 21.6378 78.8989 20.0448C83.1468 18.6288 85.8018 19.9268 86.7458 22.8177L86.8048 22.9357L83.6778 23.9977L83.5598 23.7027C83.0878 22.4047 82.2618 22.0507 79.4889 22.9947C77.2469 23.7617 76.7159 24.4107 77.0109 25.2957C77.3059 26.1217 77.8369 26.2397 79.0759 26.0627L83.1468 25.3547C86.3918 24.8237 88.0437 25.9447 88.6927 27.8326C89.4597 30.0746 88.3387 32.7296 83.9728 34.1455C79.8429 35.6205 76.8929 34.7355 75.831 31.5496Z" fill="black"/>
<path d="M104.976 30.0745L104.504 15.4427L107.749 15.3247L108.221 29.9565L104.976 30.0745Z" fill="black"/>
<path d="M115.832 22.5813C116.599 18.0974 120.139 15.6785 125.095 16.5044C129.637 17.2714 132.115 19.8674 131.525 23.2893V23.4663L127.926 22.8763V22.6993C128.221 21.0474 127.218 20.0444 124.446 19.5724C121.201 19.0414 119.785 19.9264 119.254 23.1713C118.723 26.3573 119.726 27.7143 122.853 28.2452C126.156 28.7762 127.277 28.4812 127.631 26.6523L122.735 25.8263L123.148 23.4663L131.23 24.8233L129.932 32.4342L126.923 31.9622L127.454 28.8942H127.277C126.451 30.7232 124.741 31.8442 121.614 31.3722C117.307 30.4282 115.124 27.0653 115.832 22.5813Z" fill="black"/>
<path d="M136.128 34.3226L142.205 21.0479L145.391 22.5228L147.279 30.9597L147.81 34.6176L148.046 34.7356L149.108 32.0217L152.058 25.6498L155.008 27.0067L148.931 40.2815L145.745 38.8065L143.739 30.1927L143.208 26.9478L143.031 26.8298L142.028 29.3077L139.078 35.6796L136.128 34.3226Z" fill="black"/>
<path d="M154.477 43.9987L162.972 32.1399L165.627 34.0279L157.132 45.9457L154.477 43.9987Z" fill="black"/>
<path d="M165.863 53.5559L174.3 45.4731L170.524 41.5201L172.648 39.5142L182.442 49.721L180.318 51.7269L176.542 47.774L168.105 55.8569L165.863 53.5559Z" fill="black"/>
<path d="M175.362 64.707L187.988 57.3911L194.182 68.0699L191.646 69.5449L187.103 61.698L184.625 63.114L188.991 70.7249L186.454 72.1999L182.088 64.589L179.551 66.064L184.094 73.9108L181.557 75.3858L175.362 64.707Z" fill="black"/>
<path d="M184.094 81.1681L198.135 77.0972L200.377 84.826C201.38 88.307 200.436 90.6669 197.722 91.4929C195.422 92.1419 193.711 91.2569 192.649 88.661L192.472 88.72C192.531 90.0769 192 90.7259 191.115 91.5519L187.929 94.6789L186.867 91.0209L189.935 88.012C190.879 87.127 191.056 86.478 190.584 84.885L189.994 82.8201L184.92 84.295L184.094 81.1681ZM192.472 82.1711L193.829 86.773C194.242 88.248 194.891 88.779 196.366 88.366C197.723 87.953 198.018 87.127 197.605 85.652L196.248 81.0501L192.472 82.1711Z" fill="black"/>
<path d="M109.106 6.23902C157.898 6.23902 199.197 38.8065 212.531 83.3507H218.136C204.684 35.7975 160.907 0.870117 109.106 0.870117C57.3048 0.870117 13.5865 35.7975 0.134766 83.3507H5.73967C19.0144 38.8065 60.3137 6.23902 109.106 6.23902Z" fill="#211915"/>
<path d="M109.106 222.057C60.4318 222.057 19.1915 189.667 5.79875 145.3H0.193848C13.7636 192.676 57.4229 227.426 109.106 227.426C160.789 227.426 204.448 192.676 218.018 145.3H212.413C199.02 189.667 157.78 222.057 109.106 222.057Z" fill="#211915"/>
<path d="M109.106 181.171C146.039 181.171 176.129 151.141 176.129 114.148C176.129 77.156 146.039 47.1255 109.106 47.1255C72.1725 47.1255 42.083 77.215 42.083 114.148C42.083 151.082 72.1725 181.171 109.106 181.171ZM109.106 48.4825C145.331 48.4825 174.772 77.923 174.772 114.148C174.772 150.374 145.331 179.814 109.106 179.814C72.8805 179.814 43.44 150.315 43.44 114.148C43.44 77.982 72.8805 48.4825 109.106 48.4825Z" fill="#211915"/>
<circle cx="109.136" cy="114.089" r="73.3061" fill="#7EFFF7"/>
<path d="M185.863 114.148C185.863 107.54 185.037 101.05 183.444 94.9146V133.382C184.978 127.246 185.863 120.756 185.863 114.148Z" fill="#211915"/>
<path d="M32.4072 114.149C32.4072 119.4 32.9382 124.474 33.9412 129.43V98.8682C32.9382 103.765 32.4072 108.898 32.4072 114.149Z" fill="#211915"/>
<path d="M109.106 190.846C144.8 190.846 174.831 166.362 183.386 133.322V94.8551C174.831 61.8156 144.741 37.3311 109.106 37.3311C72.0547 37.3311 41.0212 63.7626 33.8823 98.749V129.31C41.0212 164.415 72.0547 190.846 109.106 190.846ZM109.106 42.759C148.458 42.759 180.436 74.7954 180.436 114.089C180.436 153.441 148.399 185.418 109.106 185.418C69.8127 185.418 37.7763 153.5 37.7763 114.148C37.7763 74.7954 69.7537 42.759 109.106 42.759Z" fill="#211915"/>
<g clip-path="url(#clip0_239_535)">
<path d="M67.872 94.0945C65.9397 97.9591 64.4905 102.226 63.6853 106.735C61.6725 117.927 63.9269 128.876 69.2408 137.974L101.607 100.052L67.872 94.0945Z" fill="black"/>
<path d="M106.76 68.6526C90.8992 69.4577 76.5677 78.4752 68.9189 92.1626L118.274 100.858L106.76 68.6526Z" fill="black"/>
<path d="M150.479 135.479C152.411 131.614 153.86 127.347 154.666 122.838C156.678 111.647 154.424 100.697 149.11 91.5989L116.744 129.521L150.479 135.479Z" fill="black"/>
<path d="M147.903 89.6668C141.22 79.2806 130.351 71.6318 117.146 69.2969C114.409 68.8138 111.591 68.5723 108.854 68.5723L125.761 115.753L147.903 89.6668Z" fill="black"/>
<path d="M70.3682 139.827C77.1313 150.213 87.9201 157.942 101.124 160.197C104.103 160.68 107.002 160.921 109.9 160.921L92.5899 113.74L70.3682 139.827Z" fill="black"/>
<path d="M112.074 160.841C127.774 159.875 141.864 150.857 149.432 137.331L100.238 128.635L112.074 160.841Z" fill="black"/>
</g>
<defs>
<clipPath id="clip0_239_535">
<rect width="92.3491" height="92.3491" fill="white" transform="translate(62.9609 68.5718)"/>
</clipPath>
</defs>
</svg>
