<svg width="22" height="21" viewBox="0 0 22 21" fill="none" xmlns="http://www.w3.org/2000/svg">
<path d="M20.7162 15.8395C20.0821 15.3077 16.3634 12.9529 15.7453 13.061C15.4552 13.1125 15.2332 13.3599 14.639 14.0686C14.3642 14.4175 14.0625 14.7442 13.7365 15.0458C13.1393 14.9016 12.5613 14.6873 12.0143 14.4074C9.86935 13.3631 8.13649 11.6298 7.09283 9.48449C6.81297 8.93755 6.59869 8.35947 6.45442 7.76226C6.75602 7.43631 7.08275 7.13456 7.43161 6.85979C8.13966 6.26565 8.38776 6.04511 8.43927 5.75347C8.54736 5.13393 6.19036 1.4167 5.66078 0.782651C5.43879 0.520036 5.23711 0.34375 4.97885 0.34375C4.23018 0.34375 0.84375 4.53108 0.84375 5.07372C0.84375 5.11797 0.916295 9.47724 6.42178 15.0785C12.023 20.584 16.3823 20.6565 16.4265 20.6565C16.9692 20.6565 21.1565 17.2701 21.1565 16.5214C21.1565 16.2631 20.9802 16.0615 20.7162 15.8395Z" fill="black"/>
</svg>
