<svg width="96" height="80" viewBox="0 0 96 80" fill="none" xmlns="http://www.w3.org/2000/svg">
<circle cx="28.438" cy="39.9834" r="27.5186" fill="white" fill-opacity="0.08"/>
<g clip-path="url(#clip0_221_411)">
<path d="M86.0241 54.9744C88.3231 53.2307 89.8115 50.471 89.8115 47.3696C89.8115 42.1087 85.5315 37.8287 80.2706 37.8287C75.0097 37.8287 70.7296 42.1087 70.7296 47.3696C70.7296 50.4701 72.2171 53.2288 74.5149 54.9727C72.6081 55.7596 70.8731 56.9346 69.4233 58.4382C67.7979 55.2244 65.0557 52.6681 61.71 51.282C64.0091 49.5383 65.4975 46.7787 65.4975 43.6773C65.4975 38.4164 61.2175 34.1363 55.9565 34.1363C50.6956 34.1363 46.4156 38.4164 46.4156 43.6773C46.4156 46.7787 47.904 49.5383 50.203 51.282C46.8574 52.6681 44.1153 55.2244 42.4898 58.4382C41.04 56.9344 39.305 55.7596 37.3982 54.9727C39.696 53.2288 41.1835 50.4701 41.1835 47.3696C41.1835 42.1087 36.9034 37.8287 31.6425 37.8287C26.3816 37.8287 22.1016 42.1087 22.1016 47.3696C22.1016 50.471 23.5899 53.2307 25.889 54.9744C20.4194 57.2403 16.5616 62.6347 16.5616 68.9137V77.8391C16.5616 78.6889 17.2506 79.378 18.1005 79.378H42.4145H69.4985H93.8126C94.6625 79.378 95.3514 78.6889 95.3514 77.8391V68.9137C95.3514 62.6347 91.4937 57.2403 86.0241 54.9744ZM25.1793 47.3696C25.1793 43.8058 28.0787 40.9064 31.6425 40.9064C35.2064 40.9064 38.1057 43.8058 38.1057 47.3696C38.1057 50.9335 35.2064 53.8328 31.6425 53.8328C28.0787 53.8328 25.1793 50.9335 25.1793 47.3696ZM40.8757 65.2213V76.3002H19.6394V68.9137C19.6394 62.295 25.024 56.9106 31.6425 56.9106C35.46 56.9106 39.0132 58.7115 41.2773 61.7594C41.0151 62.8715 40.8757 64.0304 40.8757 65.2213ZM49.4933 43.6773C49.4933 40.1134 52.3927 37.214 55.9565 37.214C59.5204 37.214 62.4198 40.1134 62.4198 43.6773C62.4198 47.2411 59.5204 50.1405 55.9565 50.1405C52.3927 50.1405 49.4933 47.2411 49.4933 43.6773ZM67.9597 76.3002H64.9076V71.4487C64.9076 70.5989 64.2187 69.9098 63.3688 69.9098C62.5189 69.9098 61.8299 70.5989 61.8299 71.4487V76.3002H43.9534V65.2213C43.9534 58.6027 49.338 53.2182 55.9565 53.2182C62.575 53.2182 67.9597 58.6027 67.9597 65.2213V76.3002ZM73.8074 47.3696C73.8074 43.8058 76.7067 40.9064 80.2706 40.9064C83.8344 40.9064 86.7338 43.8058 86.7338 47.3696C86.7338 50.9335 83.8344 53.8328 80.2706 53.8328C76.7067 53.8328 73.8074 50.9335 73.8074 47.3696ZM92.2737 76.3002H71.0374V65.2213C71.0374 64.0304 70.898 62.8715 70.6358 61.7594C72.8999 58.7115 76.4531 56.9106 80.2706 56.9106C86.8891 56.9106 92.2737 62.295 92.2737 68.9137V76.3002Z" fill="#7EFFF7"/>
<path d="M64.4573 64.3677C64.1695 64.0815 63.774 63.9184 63.3693 63.9184C62.963 63.9184 62.5676 64.0815 62.2813 64.3677C61.9936 64.6555 61.8304 65.0508 61.8304 65.4573C61.8304 65.862 61.9936 66.259 62.2813 66.5451C62.5676 66.8315 62.963 66.9961 63.3693 66.9961C63.774 66.9961 64.1695 66.8315 64.4573 66.5451C64.7435 66.2575 64.9082 65.862 64.9082 65.4573C64.9082 65.0525 64.7435 64.6555 64.4573 64.3677Z" fill="#7EFFF7"/>
</g>
<defs>
<clipPath id="clip0_221_411">
<rect width="78.7898" height="78.7898" fill="white" transform="translate(16.5616 0.588379)"/>
</clipPath>
</defs>
</svg>
