<svg width="44" height="44" viewBox="0 0 44 44" fill="none" xmlns="http://www.w3.org/2000/svg">
<g clip-path="url(#clip0_239_250)">
<path fill-rule="evenodd" clip-rule="evenodd" d="M40.5208 17.7584H11.206L39.3632 9.60168C39.582 9.53824 39.7666 9.39022 39.8767 9.19085C39.9868 8.99115 40.013 8.7562 39.9496 8.53736L38.4761 3.45072C37.8874 1.41909 35.9957 0 33.8758 0C33.4291 0 32.984 0.0634361 32.5524 0.188294L6.11563 7.84661C4.89289 8.20071 3.87959 9.01363 3.26167 10.135C2.64409 11.2564 2.4991 12.5476 2.8532 13.77L4.29276 18.7395V39.2112C4.29276 41.848 6.43784 43.9931 9.0743 43.9931H19.3993C19.8739 43.9931 20.2585 43.6085 20.2585 43.1339C20.2585 42.6593 19.8739 42.2746 19.3993 42.2746H9.07463C7.38535 42.2746 6.01124 40.9005 6.01124 39.2112V27.5182H10.4132H10.4152H10.4169H17.1458H17.1478H17.1498H23.8787H23.8808H23.8828H30.6117H30.6137H30.6154H39.6616V39.2112C39.6616 40.9005 38.2875 42.2746 36.5982 42.2746H26.2732C25.7989 42.2746 25.414 42.6593 25.414 43.1339C25.414 43.6085 25.7989 43.9931 26.2732 43.9931H36.5982C39.235 43.9931 41.3801 41.848 41.3801 39.2112V18.6177C41.3801 18.1431 40.9954 17.7584 40.5208 17.7584ZM25.3697 25.7997L29.0204 19.4769H33.7687L30.1183 25.7997H25.3697ZM18.6367 25.7997L22.2875 19.4769H27.0358L23.3854 25.7997H18.6367ZM11.9041 25.7997L15.5545 19.4769H20.3032L16.6524 25.7997H11.9041ZM15.0987 14.6762L8.98535 8.80453L13.5658 7.47774C13.5981 7.52473 13.6357 7.56904 13.6786 7.61032L19.792 13.482L15.2115 14.8088C15.1793 14.7618 15.1413 14.7172 15.0987 14.6762ZM26.6125 3.86356L32.7259 9.73526L28.1454 11.062C28.1132 11.0151 28.0756 10.9704 28.0326 10.9295L21.9193 5.05777L26.4998 3.73098C26.532 3.77797 26.5696 3.82228 26.6125 3.86356ZM20.1454 5.73711L26.2588 11.6085L21.6783 12.9356C21.6461 12.8886 21.6085 12.844 21.5655 12.803L15.4521 6.93132L20.0326 5.60453C20.0652 5.65118 20.1028 5.69582 20.1454 5.73711ZM33.0307 1.83898C33.3066 1.75909 33.5908 1.71848 33.8758 1.71848C35.2355 1.71848 36.4482 2.6274 36.8254 3.92901L38.0599 8.18997L34.6125 9.1885C34.58 9.14151 34.5424 9.09721 34.4994 9.05592L28.3864 3.18456L33.0307 1.83898ZM4.76702 10.964C5.16308 10.2448 5.81187 9.72385 6.59391 9.49729L7.09872 9.35095C7.13127 9.39794 7.16887 9.44258 7.21149 9.48353L13.3249 15.3552L5.73836 17.553L4.50388 13.292C4.27732 12.5103 4.37096 11.6837 4.76702 10.964ZM6.01124 19.4769H13.5702L9.91978 25.7997H6.01124V19.4769ZM32.1026 25.7997L35.753 19.4769H39.6616V25.7997H32.1026Z" fill="white"/>
<path fill-rule="evenodd" clip-rule="evenodd" d="M28.7776 34.809C28.7776 34.5019 28.6138 34.2183 28.348 34.0649L20.7991 29.7066C20.5333 29.5532 20.2057 29.5532 19.9399 29.7066C19.674 29.86 19.5103 30.1436 19.5103 30.4507V39.1673C19.5103 39.4741 19.674 39.7577 19.9399 39.9111C20.0728 39.9879 20.2211 40.0265 20.3695 40.0265C20.5178 40.0265 20.6662 39.9879 20.7991 39.9111L28.348 35.5531C28.6138 35.3997 28.7776 35.1161 28.7776 34.809ZM21.2287 37.6791V31.9389L26.1999 34.809L21.2287 37.6791Z" fill="white"/>
<path fill-rule="evenodd" clip-rule="evenodd" d="M22.8363 42.2747C22.363 42.2747 21.9771 42.6606 21.9771 43.1339C21.9771 43.6072 22.363 43.9931 22.8363 43.9931C23.3099 43.9931 23.6955 43.6072 23.6955 43.1339C23.6955 42.6606 23.3099 42.2747 22.8363 42.2747Z" fill="white"/>
</g>
<defs>
<clipPath id="clip0_239_250">
<rect width="43.9931" height="43.9931" fill="white"/>
</clipPath>
</defs>
</svg>
