<svg width="58" height="51" viewBox="0 0 58 51" fill="none" xmlns="http://www.w3.org/2000/svg">
<circle cx="21.5906" cy="21.7459" r="21.3972" fill="white" fill-opacity="0.12"/>
<g clip-path="url(#clip0_501_3650)">
<path fill-rule="evenodd" clip-rule="evenodd" d="M54.5213 24.7584H25.2064L53.3637 16.6017C53.5825 16.5382 53.7671 16.3902 53.8772 16.1909C53.9873 15.9911 54.0135 15.7562 53.9501 15.5374L52.4766 10.4507C51.8879 8.41909 49.9962 7 47.8763 7C47.4296 7 46.9845 7.06344 46.5529 7.18829L20.1161 14.8466C18.8934 15.2007 17.8801 16.0136 17.2622 17.135C16.6446 18.2564 16.4996 19.5476 16.8537 20.77L18.2932 25.7395V46.2112C18.2932 48.848 20.4383 50.9931 23.0748 50.9931H33.3998C33.8744 50.9931 34.259 50.6085 34.259 50.1339C34.259 49.6593 33.8744 49.2746 33.3998 49.2746H23.0751C21.3858 49.2746 20.0117 47.9005 20.0117 46.2112V34.5182H24.4137H24.4157H24.4174H31.1463H31.1483H31.1503H37.8792H37.8812H37.8833H44.6122H44.6142H44.6159H53.6621V46.2112C53.6621 47.9005 52.288 49.2746 50.5987 49.2746H40.2737C39.7994 49.2746 39.4145 49.6593 39.4145 50.1339C39.4145 50.6085 39.7994 50.9931 40.2737 50.9931H50.5987C53.2355 50.9931 55.3806 48.848 55.3806 46.2112V25.6177C55.3806 25.1431 54.9959 24.7584 54.5213 24.7584ZM39.3701 32.7997L43.0209 26.4769H47.7692L44.1188 32.7997H39.3701ZM32.6372 32.7997L36.288 26.4769H41.0363L37.3858 32.7997H32.6372ZM25.9046 32.7997L29.555 26.4769H34.3037L30.6529 32.7997H25.9046ZM29.0992 21.6762L22.9858 15.8045L27.5663 14.4777C27.5986 14.5247 27.6361 14.569 27.6791 14.6103L33.7925 20.482L29.212 21.8088C29.1798 21.7618 29.1418 21.7172 29.0992 21.6762ZM40.613 10.8636L46.7264 16.7353L42.1459 18.062C42.1137 18.0151 42.0761 17.9704 42.0331 17.9295L35.9198 12.0578L40.5003 10.731C40.5325 10.778 40.5701 10.8223 40.613 10.8636ZM34.1459 12.7371L40.2593 18.6085L35.6788 19.9356C35.6466 19.8886 35.609 19.844 35.566 19.803L29.4526 13.9313L34.0331 12.6045C34.0657 12.6512 34.1033 12.6958 34.1459 12.7371ZM47.0312 8.83898C47.307 8.75909 47.5913 8.71848 47.8763 8.71848C49.236 8.71848 50.4486 9.6274 50.8259 10.929L52.0604 15.19L48.613 16.1885C48.5805 16.1415 48.5429 16.0972 48.4999 16.0559L42.3869 10.1846L47.0312 8.83898ZM18.7675 17.964C19.1636 17.2448 19.8124 16.7238 20.5944 16.4973L21.0992 16.351C21.1318 16.3979 21.1694 16.4426 21.212 16.4835L27.3253 22.3552L19.7389 24.553L18.5044 20.292C18.2778 19.5103 18.3715 18.6837 18.7675 17.964ZM20.0117 26.4769H27.5707L23.9203 32.7997H20.0117V26.4769ZM46.1031 32.7997L49.7535 26.4769H53.6621V32.7997H46.1031Z" fill="white"/>
<path fill-rule="evenodd" clip-rule="evenodd" d="M42.7781 41.8088C42.7781 41.5016 42.6143 41.218 42.3485 41.0646L34.7996 36.7063C34.5338 36.553 34.2062 36.553 33.9404 36.7063C33.6745 36.8597 33.5107 37.1434 33.5107 37.4505V46.1671C33.5107 46.4738 33.6745 46.7575 33.9404 46.9108C34.0733 46.9877 34.2216 47.0263 34.37 47.0263C34.5183 47.0263 34.6667 46.9877 34.7996 46.9108L42.3485 42.5529C42.6143 42.3995 42.7781 42.1159 42.7781 41.8088ZM35.2292 44.6788V38.9387L40.2004 41.8088L35.2292 44.6788Z" fill="white"/>
<path fill-rule="evenodd" clip-rule="evenodd" d="M36.8368 49.2744C36.3635 49.2744 35.9775 49.6604 35.9775 50.1337C35.9775 50.6069 36.3635 50.9929 36.8368 50.9929C37.3104 50.9929 37.696 50.6069 37.696 50.1337C37.696 49.6604 37.3104 49.2744 36.8368 49.2744Z" fill="white"/>
</g>
<defs>
<clipPath id="clip0_501_3650">
<rect width="43.9931" height="43.9931" fill="white" transform="translate(14 7)"/>
</clipPath>
</defs>
</svg>
