<svg width="44" height="44" viewBox="0 0 44 44" fill="none" xmlns="http://www.w3.org/2000/svg">
<path d="M41.0754 8.0106L40.0838 7.88091V7.88091L41.0754 8.0106ZM36.0653 3.00049L35.9356 2.00893L36.0653 3.00049ZM34.5649 24.4177L33.8318 23.7377L34.5649 24.4177ZM29.744 28.5532L29.1637 27.7389L28.6679 28.0921L28.754 28.6947L29.744 28.5532ZM30.2511 32.1034L29.2612 32.2448L30.2511 32.1034ZM29.3437 34.8258L28.6366 34.1187H28.6366L29.3437 34.8258ZM18.0653 38.8445L19.0553 38.7031L18.0653 38.8445ZM17.2875 33.3998L17.1466 32.4097L16.1561 32.5507L16.2976 33.5412L17.2875 33.3998ZM17.2899 33.3994L17.4308 34.3895L20.6762 33.9275L17.7255 32.4993L17.2899 33.3994ZM15.9312 32.4325L15.2241 33.1396H15.2241L15.9312 32.4325ZM11.6433 28.1446L12.3504 27.4375H12.3504L11.6433 28.1446ZM10.6764 26.7859L11.5765 26.3503L10.1488 23.4004L9.68639 26.6448L10.6764 26.7859ZM10.676 26.7884L10.5346 27.7783L11.5249 27.9198L11.666 26.9295L10.676 26.7884ZM5.23132 26.0105L5.37274 25.0206H5.37274L5.23132 26.0105ZM3.41641 20.5658L2.7093 19.8587H2.7093L3.41641 20.5658ZM9.25004 14.7322L9.95714 15.4393L9.25004 14.7322ZM11.9724 13.8247L12.1138 12.8348L11.9724 13.8247ZM15.5226 14.3319L15.3812 15.3219L15.9837 15.4079L16.337 14.9122L15.5226 14.3319ZM19.6582 9.51091L18.9781 8.77771L19.6582 9.51091ZM7.95371 30.2885L7.24661 29.5814H7.24661L7.95371 30.2885ZM7.95371 28.344L8.66082 27.6369L8.66082 27.6369L7.95371 28.344ZM5.36099 32.8812L4.65388 32.1741L4.65388 32.1741L5.36099 32.8812ZM3.41645 32.8812L4.12355 32.1741L4.12355 32.1741L3.41645 32.8812ZM3.41645 30.9367L2.70934 30.2296L2.70934 30.2296L3.41645 30.9367ZM6.00917 28.344L5.30206 27.6369H5.30206L6.00917 28.344ZM11.8428 34.1776L11.1357 33.4705L11.8428 34.1776ZM11.8428 32.233L12.5499 31.5259L12.5499 31.5259L11.8428 32.233ZM6.65735 39.363L5.95024 38.6559H5.95024L6.65735 39.363ZM4.71281 37.4185L5.41991 38.1256H5.41991L4.71281 37.4185ZM9.89826 32.233L9.19115 31.5259H9.19115L9.89826 32.233ZM15.7319 38.0667L16.439 38.7738H16.439L15.7319 38.0667ZM15.7319 36.1221L16.439 35.415L16.439 35.415L15.7319 36.1221ZM13.1392 40.6594L12.4321 39.9523H12.4321L13.1392 40.6594ZM11.1946 40.6594L11.9017 39.9523L11.9017 39.9523L11.1946 40.6594ZM11.1946 38.7149L10.4875 38.0078H10.4875L11.1946 38.7149ZM13.7873 36.1221L14.4944 36.8292H14.4945L13.7873 36.1221ZM25.1299 13.7597L25.837 14.4668H25.837L25.1299 13.7597ZM25.1299 18.9452L24.4228 19.6523H24.4228L25.1299 18.9452ZM30.3154 13.7597L31.0225 13.0526H31.0225L30.3154 13.7597ZM30.3154 18.9452L29.6083 18.2381H29.6083L30.3154 18.9452ZM42.0669 8.14028C42.5391 4.53023 39.5456 1.53678 35.9356 2.00893L36.1949 3.99204C38.5024 3.69025 40.3856 5.57342 40.0838 7.88091L42.0669 8.14028ZM35.2981 25.0977C39.9185 20.116 41.4981 12.4892 42.0669 8.14028L40.0838 7.88091C39.5213 12.1817 37.9949 19.249 33.8318 23.7377L35.2981 25.0977ZM30.3243 29.3676C32.0953 28.1057 33.8403 26.6695 35.2981 25.0977L33.8318 23.7377C32.4949 25.1791 30.8641 26.5272 29.1637 27.7389L30.3243 29.3676ZM31.2411 31.962L30.7339 28.4118L28.754 28.6947L29.2612 32.2448L31.2411 31.962ZM30.0508 35.5329C30.9874 34.5962 31.4284 33.2733 31.2411 31.962L29.2612 32.2448C29.3595 32.9329 29.1281 33.6272 28.6366 34.1187L30.0508 35.5329ZM24.2172 41.3665L30.0508 35.5329L28.6366 34.1187L22.803 39.9523L24.2172 41.3665ZM17.0754 38.9859C17.5658 42.4189 21.765 43.8187 24.2172 41.3665L22.803 39.9523C21.5162 41.2391 19.3126 40.5045 19.0553 38.7031L17.0754 38.9859ZM16.2976 33.5412L17.0754 38.9859L19.0553 38.7031L18.2775 33.2584L16.2976 33.5412ZM17.1489 32.4094L17.1466 32.4097L17.4284 34.3898L17.4308 34.3895L17.1489 32.4094ZM15.2241 33.1396C15.705 33.6205 16.2574 34.0107 16.8542 34.2995L17.7255 32.4993C17.3288 32.3073 16.9601 32.0472 16.6383 31.7254L15.2241 33.1396ZM10.9362 28.8517L15.2241 33.1396L16.6383 31.7254L12.3504 27.4375L10.9362 28.8517ZM9.77627 27.2216C10.0651 27.8184 10.4554 28.3709 10.9362 28.8517L12.3504 27.4375C12.0287 27.1158 11.7685 26.747 11.5765 26.3503L9.77627 27.2216ZM11.666 26.9295L11.6664 26.927L9.68639 26.6448L9.68604 26.6473L11.666 26.9295ZM5.08989 27.0005L10.5346 27.7783L10.8175 25.7984L5.37274 25.0206L5.08989 27.0005ZM2.7093 19.8587C0.257154 22.3109 1.65689 26.5101 5.08989 27.0005L5.37274 25.0206C3.57126 24.7632 2.83674 22.5597 4.12351 21.2729L2.7093 19.8587ZM8.54293 14.0251L2.7093 19.8587L4.12351 21.2729L9.95714 15.4393L8.54293 14.0251ZM12.1138 12.8348C10.8025 12.6475 9.47957 13.0885 8.54293 14.0251L9.95714 15.4393C10.4486 14.9478 11.1429 14.7164 11.831 14.8147L12.1138 12.8348ZM15.664 13.342L12.1138 12.8348L11.831 14.8147L15.3812 15.3219L15.664 13.342ZM18.9781 8.77771C17.4063 10.2355 15.9702 11.9805 14.7082 13.7516L16.337 14.9122C17.5487 13.2118 18.8967 11.581 20.3382 10.2441L18.9781 8.77771ZM35.9356 2.00893C31.5867 2.57771 23.9599 4.15732 18.9781 8.77771L20.3382 10.2441C24.8269 6.08097 31.8942 4.55453 36.1949 3.99204L35.9356 2.00893ZM8.66082 30.9956C9.58832 30.0681 9.58832 28.5643 8.66082 27.6369L7.24661 29.0511C7.39306 29.1975 7.39305 29.4349 7.24661 29.5814L8.66082 30.9956ZM6.0681 33.5883L8.66082 30.9956L7.24661 29.5814L4.65388 32.1741L6.0681 33.5883ZM2.70934 33.5883C3.63683 34.5158 5.1406 34.5158 6.0681 33.5883L4.65388 32.1741C4.50743 32.3206 4.27 32.3206 4.12355 32.1741L2.70934 33.5883ZM2.70934 30.2296C1.78184 31.1571 1.78184 32.6608 2.70934 33.5883L4.12355 32.1741C3.97711 32.0277 3.9771 31.7902 4.12355 31.6438L2.70934 30.2296ZM5.30206 27.6369L2.70934 30.2296L4.12355 31.6438L6.71628 29.0511L5.30206 27.6369ZM8.66082 27.6369C7.73333 26.7094 6.22956 26.7094 5.30206 27.6369L6.71628 29.0511C6.86272 28.9046 7.10016 28.9046 7.24661 29.0511L8.66082 27.6369ZM12.5499 34.8847C13.4774 33.9572 13.4774 32.4534 12.5499 31.5259L11.1357 32.9402C11.2821 33.0866 11.2821 33.324 11.1357 33.4705L12.5499 34.8847ZM7.36446 40.0701L12.5499 34.8847L11.1357 33.4705L5.95024 38.6559L7.36446 40.0701ZM4.0057 40.0701C4.93319 40.9976 6.43696 40.9976 7.36446 40.0701L5.95024 38.6559C5.8038 38.8024 5.56636 38.8024 5.41991 38.6559L4.0057 40.0701ZM4.0057 36.7114C3.0782 37.6389 3.07821 39.1427 4.0057 40.0701L5.41991 38.6559C5.27347 38.5095 5.27347 38.272 5.41991 38.1256L4.0057 36.7114ZM9.19115 31.5259L4.0057 36.7114L5.41991 38.1256L10.6054 32.9402L9.19115 31.5259ZM12.5499 31.5259C11.6224 30.5984 10.1186 30.5984 9.19115 31.5259L10.6054 32.9402C10.7518 32.7937 10.9892 32.7937 11.1357 32.9402L12.5499 31.5259ZM16.439 38.7738C17.3665 37.8463 17.3665 36.3425 16.439 35.415L15.0248 36.8292C15.1712 36.9757 15.1712 37.2131 15.0248 37.3596L16.439 38.7738ZM13.8463 41.3665L16.439 38.7738L15.0248 37.3596L12.4321 39.9523L13.8463 41.3665ZM10.4875 41.3665C11.415 42.294 12.9188 42.294 13.8463 41.3665L12.4321 39.9523C12.2856 40.0987 12.0482 40.0987 11.9017 39.9523L10.4875 41.3665ZM10.4875 38.0078C9.56002 38.9352 9.56002 40.439 10.4875 41.3665L11.9017 39.9523C11.7553 39.8059 11.7553 39.5684 11.9017 39.422L10.4875 38.0078ZM13.0802 35.415L10.4875 38.0078L11.9017 39.422L14.4944 36.8292L13.0802 35.415ZM16.439 35.415C15.5115 34.4875 14.0077 34.4875 13.0802 35.415L14.4945 36.8292C14.6409 36.6828 14.8783 36.6828 15.0248 36.8292L16.439 35.415ZM24.4228 13.0526C22.6004 14.8751 22.6004 17.8298 24.4228 19.6523L25.837 18.2381C24.7956 17.1967 24.7956 15.5082 25.837 14.4668L24.4228 13.0526ZM31.0225 13.0526C29.2 11.2302 26.2453 11.2302 24.4228 13.0526L25.837 14.4668C26.8784 13.4254 28.5669 13.4254 29.6083 14.4668L31.0225 13.0526ZM31.0225 19.6523C32.8449 17.8298 32.8449 14.8751 31.0225 13.0526L29.6083 14.4668C30.6497 15.5082 30.6497 17.1967 29.6083 18.2381L31.0225 19.6523ZM24.4228 19.6523C26.2453 21.4747 29.2 21.4747 31.0225 19.6523L29.6083 18.2381C28.5669 19.2795 26.8784 19.2795 25.837 18.2381L24.4228 19.6523Z" fill="white"/>
</svg>
