<svg width="24" height="23" viewBox="0 0 24 23" fill="none" xmlns="http://www.w3.org/2000/svg">
<path d="M13.2798 0.857498V10.1304H22.5527C22.5527 5.15135 18.2588 0.857498 13.2798 0.857498Z" stroke="black" stroke-width="1.04362" stroke-miterlimit="10" stroke-linecap="round" stroke-linejoin="round"/>
<path d="M10.7041 12.7057L14.3115 21.2042V21.2046" stroke="black" stroke-width="1.04362" stroke-miterlimit="10" stroke-linecap="round" stroke-linejoin="round"/>
<path d="M19.5883 15.2817H11.7974" stroke="black" stroke-width="1.04362" stroke-miterlimit="10" stroke-linecap="round" stroke-linejoin="round"/>
<path d="M18.3354 17.8589H12.8906" stroke="black" stroke-width="1.04362" stroke-miterlimit="10" stroke-linecap="round" stroke-linejoin="round"/>
<path d="M4.22129 19.7046C3.9844 19.7046 3.79199 19.5122 3.79199 19.2753C3.79199 19.0384 3.9844 18.846 4.22129 18.846C4.45818 18.846 4.65059 19.0384 4.65059 19.2753C4.65059 19.5122 4.45818 19.7046 4.22129 19.7046Z" fill="black"/>
<path d="M5.74188 20.4651C7.19257 21.4175 8.9035 21.979 10.704 21.979C11.9705 21.979 13.1931 21.7012 14.3114 21.2049V21.2045C15.9299 20.4868 17.3311 19.3109 18.3353 17.8577C18.8792 17.0708 19.3063 16.2028 19.5884 15.2819C19.8408 14.4585 19.9769 13.5931 19.9769 12.7061H10.704V3.43326C5.72496 3.43326 1.43115 7.72707 1.43115 12.7061C1.43115 14.5485 2.01908 16.2971 3.01209 17.769" stroke="black" stroke-width="1.04362" stroke-miterlimit="10" stroke-linecap="round" stroke-linejoin="round"/>
</svg>
