<svg width="46" height="53" viewBox="0 0 46 53" fill="none" xmlns="http://www.w3.org/2000/svg">
<circle cx="13.8551" cy="13.7642" r="13.6197" fill="#7EFFF7"/>
<path d="M26.0205 52.2148C15.1501 52.2148 6.31445 43.3791 6.31445 32.5088C6.31445 21.6384 15.1501 12.8027 26.0205 12.8027C36.8909 12.8027 45.7265 21.6384 45.7265 32.5088C45.7265 43.3791 36.8909 52.2148 26.0205 52.2148ZM26.0205 15.5524C16.6716 15.5524 9.06413 23.1599 9.06413 32.5088C9.06413 41.8577 16.6716 49.4651 26.0205 49.4651C35.3694 49.4651 42.9768 41.8577 42.9768 32.5088C42.9768 23.1599 35.3694 15.5524 26.0205 15.5524Z" fill="black"/>
<path d="M23.4165 39.0725C23.0498 39.0725 22.7016 38.9258 22.4449 38.6692L17.2571 33.4815C16.7255 32.9499 16.7255 32.07 17.2571 31.5384C17.7887 31.0067 18.6686 31.0067 19.2002 31.5384L23.4165 35.7545L32.8387 26.3323C33.3703 25.8007 34.2502 25.8007 34.7818 26.3323C35.3134 26.8639 35.3134 27.7438 34.7818 28.2754L24.388 38.6692C24.1314 38.9258 23.7831 39.0725 23.4165 39.0725Z" fill="black"/>
</svg>
