<svg width="15" height="20" viewBox="0 0 15 20" fill="none" xmlns="http://www.w3.org/2000/svg">
<mask id="path-1-inside-1_370_4635" fill="white">
<path d="M7.32356 12.4453C3.45435 12.4453 0.149414 13.1329 0.149414 15.8833C0.149414 18.6347 3.43371 19.3465 7.32356 19.3465C11.1928 19.3465 14.4977 18.6599 14.4977 15.9086C14.4977 13.1572 11.2143 12.4453 7.32356 12.4453Z"/>
</mask>
<path d="M7.32356 11.197C5.3554 11.197 3.36587 11.366 1.82823 11.9713C1.04599 12.2793 0.307671 12.728 -0.238735 13.3939C-0.802625 14.081 -1.09892 14.9237 -1.09892 15.8833H1.39775C1.39775 15.4677 1.51457 15.193 1.69127 14.9777C1.88545 14.7411 2.21519 14.5022 2.74283 14.2945C3.82496 13.8684 5.42251 13.6936 7.32356 13.6936V11.197ZM-1.09892 15.8833C-1.09892 16.8409 -0.805371 17.6834 -0.245391 18.3725C0.297809 19.0408 1.03311 19.4939 1.81497 19.806C3.35158 20.4195 5.34266 20.5949 7.32356 20.5949V18.0982C5.41462 18.0982 3.81863 17.9176 2.74063 17.4873C2.21517 17.2775 1.88629 17.0367 1.69212 16.7978C1.51474 16.5796 1.39775 16.3014 1.39775 15.8833H-1.09892ZM7.32356 20.5949C9.29158 20.5949 11.2811 20.4261 12.8188 19.8209C13.6011 19.513 14.3395 19.0643 14.8859 18.3983C15.4498 17.7111 15.746 16.8683 15.746 15.9086H13.2494C13.2494 16.3245 13.1325 16.5993 12.9558 16.8146C12.7617 17.0512 12.432 17.29 11.9044 17.4977C10.8223 17.9236 9.22476 18.0982 7.32356 18.0982V20.5949ZM15.746 15.9086C15.746 14.951 15.4526 14.1085 14.8927 13.4195C14.3496 12.751 13.6144 12.298 12.8325 11.9858C11.296 11.3724 9.30488 11.197 7.32356 11.197V13.6936C9.23298 13.6936 10.8289 13.8742 11.9068 14.3045C12.4322 14.5143 12.761 14.755 12.9551 14.9939C13.1324 15.2121 13.2494 15.4904 13.2494 15.9086H15.746Z" fill="#022EA1" mask="url(#path-1-inside-1_370_4635)"/>
<mask id="path-3-inside-2_370_4635" fill="white">
<path d="M7.32367 10.5449C9.95937 10.5449 12.0712 8.34399 12.0712 5.59912C12.0712 2.85426 9.95937 0.65332 7.32367 0.65332C4.68886 0.65332 2.57617 2.85426 2.57617 5.59912C2.57617 8.34399 4.68886 10.5449 7.32367 10.5449Z"/>
</mask>
<path d="M7.32367 11.7933C10.6966 11.7933 13.3195 8.98463 13.3195 5.59912H10.8228C10.8228 7.70335 9.22213 9.29659 7.32367 9.29659V11.7933ZM13.3195 5.59912C13.3195 2.21362 10.6966 -0.595017 7.32367 -0.595017V1.90166C9.22213 1.90166 10.8228 3.4949 10.8228 5.59912H13.3195ZM7.32367 -0.595017C3.95177 -0.595017 1.32783 2.21346 1.32783 5.59912H3.82451C3.82451 3.49506 5.42595 1.90166 7.32367 1.90166V-0.595017ZM1.32783 5.59912C1.32783 8.98479 3.95177 11.7933 7.32367 11.7933V9.29659C5.42595 9.29659 3.82451 7.70319 3.82451 5.59912H1.32783Z" fill="#022EA1" mask="url(#path-3-inside-2_370_4635)"/>
</svg>
