<svg width="46" height="46" viewBox="0 0 46 46" fill="none" xmlns="http://www.w3.org/2000/svg">
<ellipse cx="19.1492" cy="33.5529" rx="13.4046" ry="6.70228" stroke="white" stroke-width="2.87241" stroke-linejoin="round"/>
<circle cx="19.1495" cy="13.4461" r="7.65975" stroke="white" stroke-width="2.87241" stroke-linejoin="round"/>
<path fill-rule="evenodd" clip-rule="evenodd" d="M28.8094 19.6688C28.1928 20.6241 27.4382 21.4821 26.574 22.2147C27.2528 22.4274 27.9749 22.542 28.7238 22.542C32.6898 22.542 35.9048 19.327 35.9048 15.361C35.9048 11.6158 33.0378 8.54027 29.3788 8.20945C29.8885 9.20324 30.2577 10.281 30.4601 11.4165C31.9749 12.0843 33.0324 13.5992 33.0324 15.361C33.0324 17.712 31.1495 19.6232 28.8094 19.6688Z" fill="white"/>
<path fill-rule="evenodd" clip-rule="evenodd" d="M36.3832 33.6608C36.3638 34.8369 36.0291 35.9669 35.4281 37.0206C36.1335 36.8265 36.7944 36.6016 37.4011 36.3489C38.5445 35.8724 39.5637 35.2685 40.3189 34.5246C41.0792 33.7756 41.6501 32.7993 41.6501 31.638C41.6501 30.4767 41.0792 29.5003 40.3189 28.7514C39.5637 28.0074 38.5445 27.4035 37.4011 26.9271C35.4427 26.1111 32.9191 25.5857 30.1593 25.4496C32.0785 26.4244 33.6458 27.6491 34.7277 29.0419C35.2978 29.2011 35.8231 29.3814 36.2963 29.5785C37.232 29.9684 37.8955 30.3961 38.3031 30.7977C38.7056 31.1942 38.7777 31.4773 38.7777 31.638C38.7777 31.7987 38.7056 32.0817 38.3031 32.4783C37.9082 32.8673 37.2732 33.2808 36.3832 33.6608Z" fill="white"/>
</svg>
