<svg width="23" height="23" viewBox="0 0 23 23" fill="none" xmlns="http://www.w3.org/2000/svg">
<g clip-path="url(#clip0_239_645)">
<path fill-rule="evenodd" clip-rule="evenodd" d="M20.6625 9.75743H5.98201L20.0828 5.67264C20.1923 5.64087 20.2848 5.56675 20.3399 5.46691C20.3951 5.3669 20.4082 5.24924 20.3764 5.13965L19.6385 2.59233C19.3437 1.57492 18.3964 0.864258 17.3347 0.864258C17.111 0.864258 16.8881 0.896026 16.672 0.958553L3.43284 4.79373C2.82051 4.97106 2.31306 5.37816 2.00362 5.93973C1.69435 6.5013 1.62173 7.14792 1.79906 7.76008L2.51997 10.2487V20.5007C2.51997 21.8212 3.5942 22.8954 4.9145 22.8954H10.0851C10.3228 22.8954 10.5154 22.7028 10.5154 22.4651C10.5154 22.2274 10.3228 22.0348 10.0851 22.0348H4.91467C4.0687 22.0348 3.38057 21.3467 3.38057 20.5007V14.645H5.58499H5.586H5.58684H8.95659H8.9576H8.95861H12.3284H12.3294H12.3304H15.7001H15.7011H15.702H20.2322V20.5007C20.2322 21.3467 19.544 22.0348 18.6981 22.0348H13.5275C13.29 22.0348 13.0972 22.2274 13.0972 22.4651C13.0972 22.7028 13.29 22.8954 13.5275 22.8954H18.6981C20.0185 22.8954 21.0928 21.8212 21.0928 20.5007V10.1877C21.0928 9.95005 20.9002 9.75743 20.6625 9.75743ZM13.075 13.7844L14.9032 10.618H17.2811L15.453 13.7844H13.075ZM9.70322 13.7844L11.5315 10.618H13.9094L12.0813 13.7844H9.70322ZM6.33162 13.7844L8.1597 10.618H10.5378L8.70951 13.7844H6.33162ZM7.93145 8.21391L4.86996 5.27344L7.16381 4.60901C7.17994 4.63254 7.19877 4.65472 7.22028 4.6754L10.2818 7.61586L7.98792 8.2803C7.97179 8.25677 7.95279 8.23441 7.93145 8.21391ZM13.6974 2.79908L16.7589 5.73954L14.465 6.40398C14.4489 6.38045 14.4301 6.35809 14.4086 6.33758L11.3471 3.39712L13.6409 2.73268C13.6571 2.75621 13.6759 2.7784 13.6974 2.79908ZM10.4588 3.73732L13.5202 6.67762L11.2264 7.34222C11.2103 7.31869 11.1914 7.29634 11.1699 7.27583L8.10844 4.33536L10.4023 3.67093C10.4186 3.69429 10.4374 3.71665 10.4588 3.73732ZM16.9115 1.78519C17.0497 1.74519 17.192 1.72485 17.3347 1.72485C18.0157 1.72485 18.6229 2.18002 18.8119 2.83185L19.4301 4.96568L17.7037 5.46573C17.6874 5.4422 17.6686 5.42001 17.647 5.39934L14.5857 2.45904L16.9115 1.78519ZM2.75748 6.3549C2.95582 5.99469 3.28072 5.73383 3.67236 5.62037L3.92516 5.54708C3.94146 5.57062 3.96029 5.59297 3.98164 5.61348L7.04312 8.55394L3.24391 9.65456L2.6257 7.52073C2.51224 7.12926 2.55914 6.71527 2.75748 6.3549ZM3.38057 10.618H7.16599L5.33791 13.7844H3.38057V10.618ZM16.4468 13.7844L18.2748 10.618H20.2322V13.7844H16.4468Z" fill="black"/>
<path fill-rule="evenodd" clip-rule="evenodd" d="M14.7816 18.2964C14.7816 18.1426 14.6996 18.0006 14.5665 17.9238L10.7861 15.7412C10.6529 15.6644 10.4889 15.6644 10.3558 15.7412C10.2227 15.818 10.1406 15.9601 10.1406 16.1138V20.479C10.1406 20.6326 10.2227 20.7747 10.3558 20.8515C10.4223 20.89 10.4966 20.9093 10.5709 20.9093C10.6452 20.9093 10.7195 20.89 10.7861 20.8515L14.5665 18.6691C14.6996 18.5922 14.7816 18.4502 14.7816 18.2964ZM11.0012 19.7337V16.8591L13.4907 18.2964L11.0012 19.7337Z" fill="black"/>
<path fill-rule="evenodd" clip-rule="evenodd" d="M11.8063 22.0352C11.5693 22.0352 11.376 22.2285 11.376 22.4655C11.376 22.7025 11.5693 22.8957 11.8063 22.8957C12.0434 22.8957 12.2366 22.7025 12.2366 22.4655C12.2366 22.2285 12.0434 22.0352 11.8063 22.0352Z" fill="black"/>
</g>
<defs>
<clipPath id="clip0_239_645">
<rect width="22.0311" height="22.0311" fill="white" transform="translate(0.370117 0.864258)"/>
</clipPath>
</defs>
</svg>
